<?xml version="1.0" standalone="yes"?>

<svg version="1.1" viewBox="0.0 0.0 1090.1312335958005 718.6482939632546" fill="none" stroke="none" stroke-linecap="square" stroke-miterlimit="10" xmlns="http://www.w3.org/2000/svg" xmlns:xlink="http://www.w3.org/1999/xlink"><clipPath id="p.0"><path d="m0 0l1090.1312 0l0 718.6483l-1090.1312 0l0 -718.6483z" clip-rule="nonzero"></path></clipPath><g clip-path="url(#p.0)"><path fill="#000000" fill-opacity="0.0" d="m0 0l1090.1312 0l0 718.6483l-1090.1312 0z" fill-rule="nonzero"></path><path fill="#db5f57" d="m519.12335 175.4042l0 0c0 -19.395203 18.444458 -35.11812 41.19684 -35.11812l0 0c22.752441 0 41.1969 15.722916 41.1969 35.11812l0 0c0 19.395187 -18.444458 35.118103 -41.1969 35.118103l0 0c-22.75238 0 -41.19684 -15.722916 -41.19684 -35.118103z" fill-rule="nonzero"></path><path stroke="#000000" stroke-width="1.0" stroke-linejoin="round" stroke-linecap="butt" d="m519.12335 175.4042l0 0c0 -19.395203 18.444458 -35.11812 41.19684 -35.11812l0 0c22.752441 0 41.1969 15.722916 41.1969 35.11812l0 0c0 19.395187 -18.444458 35.118103 -41.1969 35.118103l0 0c-22.75238 0 -41.19684 -15.722916 -41.19684 -35.118103z" fill-rule="nonzero"></path><path fill="#db5f57" d="m410.30185 261.8504l0 0c0 -19.395203 18.444458 -35.11812 41.19684 -35.11812l0 0c22.75238 0 41.19684 15.722916 41.19684 35.11812l0 0c0 19.395203 -18.444458 35.118103 -41.19684 35.118103l0 0c-22.75238 0 -41.19684 -15.7229 -41.19684 -35.118103z" fill-rule="nonzero"></path><path stroke="#000000" stroke-width="1.0" stroke-linejoin="round" stroke-linecap="butt" d="m410.30185 261.8504l0 0c0 -19.395203 18.444458 -35.11812 41.19684 -35.11812l0 0c22.75238 0 41.19684 15.722916 41.19684 35.11812l0 0c0 19.395203 -18.444458 35.118103 -41.19684 35.118103l0 0c-22.75238 0 -41.19684 -15.7229 -41.19684 -35.118103z" fill-rule="nonzero"></path><path fill="#db5f57" d="m626.4619 261.8504l0 0c0 -19.395203 18.444458 -35.11812 41.1969 -35.11812l0 0c22.75238 0 41.19684 15.722916 41.19684 35.11812l0 0c0 19.395203 -18.444458 35.118103 -41.19684 35.118103l0 0c-22.752441 0 -41.1969 -15.7229 -41.1969 -35.118103z" fill-rule="nonzero"></path><path stroke="#000000" stroke-width="1.0" stroke-linejoin="round" stroke-linecap="butt" d="m626.4619 261.8504l0 0c0 -19.395203 18.444458 -35.11812 41.1969 -35.11812l0 0c22.75238 0 41.19684 15.722916 41.19684 35.11812l0 0c0 19.395203 -18.444458 35.118103 -41.19684 35.118103l0 0c-22.752441 0 -41.1969 -15.7229 -41.1969 -35.118103z" fill-rule="nonzero"></path><path fill="#000000" fill-opacity="0.0" d="m589.4508 200.23645l49.07086 36.7874" fill-rule="nonzero"></path><path stroke="#d9d9d9" stroke-width="4.0" stroke-linejoin="round" stroke-linecap="butt" d="m589.4508 200.23645l49.07086 36.7874" fill-rule="nonzero"></path><path fill="#000000" fill-opacity="0.0" d="m531.18964 200.23645l-50.551178 36.7874" fill-rule="nonzero"></path><path stroke="#d9d9d9" stroke-width="4.0" stroke-linejoin="round" stroke-linecap="butt" d="m531.18964 200.23645l-50.551178 36.7874" fill-rule="nonzero"></path><path fill="#000000" fill-opacity="0.0" d="m494.17847 262.07086l132.28345 -0.22045898" fill-rule="nonzero"></path><path stroke="#d9d9d9" stroke-width="4.0" stroke-linejoin="round" stroke-linecap="butt" d="m494.17847 262.07086l132.28345 -0.22045898" fill-rule="nonzero"></path><path fill="#57a7db" d="m282.3517 394.9344l0 0c0 -19.395203 15.694702 -35.118103 35.055115 -35.118103l0 0c9.29718 0 18.213593 3.6999207 24.78772 10.285858c6.5740967 6.585907 10.267395 15.518341 10.267395 24.832245l0 0c0 19.395203 -15.694702 35.118103 -35.055115 35.118103l0 0c-19.360413 0 -35.055115 -15.7229 -35.055115 -35.118103z" fill-rule="nonzero"></path><path stroke="#000000" stroke-width="1.0" stroke-linejoin="round" stroke-linecap="butt" d="m282.3517 394.9344l0 0c0 -19.395203 15.694702 -35.118103 35.055115 -35.118103l0 0c9.29718 0 18.213593 3.6999207 24.78772 10.285858c6.5740967 6.585907 10.267395 15.518341 10.267395 24.832245l0 0c0 19.395203 -15.694702 35.118103 -35.055115 35.118103l0 0c-19.360413 0 -35.055115 -15.7229 -35.055115 -35.118103z" fill-rule="nonzero"></path><path fill="#57a7db" d="m416.44357 394.9344l0 0c0 -19.395203 15.694702 -35.118103 35.055115 -35.118103l0 0c9.29718 0 18.213593 3.6999207 24.78772 10.285858c6.5740967 6.585907 10.267395 15.518341 10.267395 24.832245l0 0c0 19.395203 -15.694702 35.118103 -35.055115 35.118103l0 0c-19.360413 0 -35.055115 -15.7229 -35.055115 -35.118103z" fill-rule="nonzero"></path><path stroke="#000000" stroke-width="1.0" stroke-linejoin="round" stroke-linecap="butt" d="m416.44357 394.9344l0 0c0 -19.395203 15.694702 -35.118103 35.055115 -35.118103l0 0c9.29718 0 18.213593 3.6999207 24.78772 10.285858c6.5740967 6.585907 10.267395 15.518341 10.267395 24.832245l0 0c0 19.395203 -15.694702 35.118103 -35.055115 35.118103l0 0c-19.360413 0 -35.055115 -15.7229 -35.055115 -35.118103z" fill-rule="nonzero"></path><path fill="#57a7db" d="m525.2651 394.9344l0 0c0 -19.395203 15.694702 -35.118103 35.055115 -35.118103l0 0c9.297241 0 18.213623 3.6999207 24.78772 10.285858c6.5740967 6.585907 10.267395 15.518341 10.267395 24.832245l0 0c0 19.395203 -15.694702 35.118103 -35.055115 35.118103l0 0c-19.360413 0 -35.055115 -15.7229 -35.055115 -35.118103z" fill-rule="nonzero"></path><path stroke="#000000" stroke-width="1.0" stroke-linejoin="round" stroke-linecap="butt" d="m525.2651 394.9344l0 0c0 -19.395203 15.694702 -35.118103 35.055115 -35.118103l0 0c9.297241 0 18.213623 3.6999207 24.78772 10.285858c6.5740967 6.585907 10.267395 15.518341 10.267395 24.832245l0 0c0 19.395203 -15.694702 35.118103 -35.055115 35.118103l0 0c-19.360413 0 -35.055115 -15.7229 -35.055115 -35.118103z" fill-rule="nonzero"></path><path fill="#57a7db" d="m632.6037 394.9344l0 0c0 -19.395203 15.694702 -35.118103 35.055115 -35.118103l0 0c9.29718 0 18.213562 3.6999207 24.78772 10.285858c6.5740967 6.585907 10.267395 15.518341 10.267395 24.832245l0 0c0 19.395203 -15.694702 35.118103 -35.055115 35.118103l0 0c-19.360413 0 -35.055115 -15.7229 -35.055115 -35.118103z" fill-rule="nonzero"></path><path stroke="#000000" stroke-width="1.0" stroke-linejoin="round" stroke-linecap="butt" d="m632.6037 394.9344l0 0c0 -19.395203 15.694702 -35.118103 35.055115 -35.118103l0 0c9.29718 0 18.213562 3.6999207 24.78772 10.285858c6.5740967 6.585907 10.267395 15.518341 10.267395 24.832245l0 0c0 19.395203 -15.694702 35.118103 -35.055115 35.118103l0 0c-19.360413 0 -35.055115 -15.7229 -35.055115 -35.118103z" fill-rule="nonzero"></path><path fill="#57a7db" d="m768.17847 394.9344l0 0c0 -19.395203 15.694702 -35.118103 35.055115 -35.118103l0 0c9.29718 0 18.213623 3.6999207 24.78772 10.285858c6.5740967 6.585907 10.267395 15.518341 10.267395 24.832245l0 0c0 19.395203 -15.694702 35.118103 -35.055115 35.118103l0 0c-19.360413 0 -35.055115 -15.7229 -35.055115 -35.118103z" fill-rule="nonzero"></path><path stroke="#000000" stroke-width="1.0" stroke-linejoin="round" stroke-linecap="butt" d="m768.17847 394.9344l0 0c0 -19.395203 15.694702 -35.118103 35.055115 -35.118103l0 0c9.29718 0 18.213623 3.6999207 24.78772 10.285858c6.5740967 6.585907 10.267395 15.518341 10.267395 24.832245l0 0c0 19.395203 -15.694702 35.118103 -35.055115 35.118103l0 0c-19.360413 0 -35.055115 -15.7229 -35.055115 -35.118103z" fill-rule="nonzero"></path><path fill="#000000" fill-opacity="0.0" d="m560.3202 210.52231l0 149.29135" fill-rule="nonzero"></path><path stroke="#cccccc" stroke-width="4.0" stroke-linejoin="round" stroke-linecap="butt" stroke-dasharray="16.0,12.0" d="m560.3202 210.52231l0 149.29135" fill-rule="nonzero"></path><path fill="#000000" fill-opacity="0.0" d="m696.78937 286.68265l81.66931 83.433075" fill-rule="nonzero"></path><path stroke="#cccccc" stroke-width="4.0" stroke-linejoin="round" stroke-linecap="butt" stroke-dasharray="16.0,12.0" d="m696.78937 286.68265l81.66931 83.433075" fill-rule="nonzero"></path><path fill="#000000" fill-opacity="0.0" d="m342.19455 370.10214l80.188965 -83.433075" fill-rule="nonzero"></path><path stroke="#cccccc" stroke-width="4.0" stroke-linejoin="round" stroke-linecap="butt" stroke-dasharray="16.0,12.0" d="m342.19455 370.10214l80.188965 -83.433075" fill-rule="nonzero"></path><path fill="#000000" fill-opacity="0.0" d="m667.6588 296.9685l0 62.834656" fill-rule="nonzero"></path><path stroke="#cccccc" stroke-width="4.0" stroke-linejoin="round" stroke-linecap="butt" stroke-dasharray="16.0,12.0" d="m667.6588 296.9685l0 62.834656" fill-rule="nonzero"></path><path fill="#000000" fill-opacity="0.0" d="m451.4987 296.9685l0 62.834656" fill-rule="nonzero"></path><path stroke="#cccccc" stroke-width="4.0" stroke-linejoin="round" stroke-linecap="butt" stroke-dasharray="16.0,12.0" d="m451.4987 296.9685l0 62.834656" fill-rule="nonzero"></path><path fill="#57a7db" d="m226.11285 482.7874l0 0c0 -19.395203 15.694717 -35.118134 35.055115 -35.118134l0 0c9.297211 0 18.213623 3.6999512 24.78772 10.285858c6.574127 6.5859375 10.267395 15.518372 10.267395 24.832275l0 0c0 19.395172 -15.694702 35.118103 -35.055115 35.118103l0 0c-19.360397 0 -35.055115 -15.722931 -35.055115 -35.118103z" fill-rule="nonzero"></path><path stroke="#000000" stroke-width="1.0" stroke-linejoin="round" stroke-linecap="butt" d="m226.11285 482.7874l0 0c0 -19.395203 15.694717 -35.118134 35.055115 -35.118134l0 0c9.297211 0 18.213623 3.6999512 24.78772 10.285858c6.574127 6.5859375 10.267395 15.518372 10.267395 24.832275l0 0c0 19.395172 -15.694702 35.118103 -35.055115 35.118103l0 0c-19.360397 0 -35.055115 -15.722931 -35.055115 -35.118103z" fill-rule="nonzero"></path><path fill="#57a7db" d="m352.46194 476.75592l0 0c0 -19.395203 15.694702 -35.118134 35.055115 -35.118134l0 0c9.297211 0 18.213593 3.6999512 24.78772 10.285858c6.5740967 6.5859375 10.267395 15.518372 10.267395 24.832275l0 0c0 19.395172 -15.694702 35.118103 -35.055115 35.118103l0 0c-19.360413 0 -35.055115 -15.722931 -35.055115 -35.118103z" fill-rule="nonzero"></path><path stroke="#000000" stroke-width="1.0" stroke-linejoin="round" stroke-linecap="butt" d="m352.46194 476.75592l0 0c0 -19.395203 15.694702 -35.118134 35.055115 -35.118134l0 0c9.297211 0 18.213593 3.6999512 24.78772 10.285858c6.5740967 6.5859375 10.267395 15.518372 10.267395 24.832275l0 0c0 19.395172 -15.694702 35.118103 -35.055115 35.118103l0 0c-19.360413 0 -35.055115 -15.722931 -35.055115 -35.118103z" fill-rule="nonzero"></path><path fill="#57a7db" d="m486.5538 482.7874l0 0c0 -19.395203 15.694702 -35.118134 35.055145 -35.118134l0 0c9.29718 0 18.213562 3.6999512 24.787659 10.285858c6.5741577 6.5859375 10.267456 15.518372 10.267456 24.832275l0 0c0 19.395172 -15.694702 35.118103 -35.055115 35.118103l0 0c-19.360443 0 -35.055145 -15.722931 -35.055145 -35.118103z" fill-rule="nonzero"></path><path stroke="#000000" stroke-width="1.0" stroke-linejoin="round" stroke-linecap="butt" d="m486.5538 482.7874l0 0c0 -19.395203 15.694702 -35.118134 35.055145 -35.118134l0 0c9.29718 0 18.213562 3.6999512 24.787659 10.285858c6.5741577 6.5859375 10.267456 15.518372 10.267456 24.832275l0 0c0 19.395172 -15.694702 35.118103 -35.055115 35.118103l0 0c-19.360443 0 -35.055145 -15.722931 -35.055145 -35.118103z" fill-rule="nonzero"></path><path fill="#57a7db" d="m589.4514 501.28085l0 0c0 -19.395203 15.694763 -35.118134 35.055176 -35.118134l0 0c9.29718 0 18.213562 3.6999512 24.787659 10.285858c6.5741577 6.5859375 10.267456 15.518372 10.267456 24.832275l0 0c0 19.395172 -15.694763 35.118073 -35.055115 35.118073l0 0c-19.360413 0 -35.055176 -15.7229 -35.055176 -35.118073z" fill-rule="nonzero"></path><path stroke="#000000" stroke-width="1.0" stroke-linejoin="round" stroke-linecap="butt" d="m589.4514 501.28085l0 0c0 -19.395203 15.694763 -35.118134 35.055176 -35.118134l0 0c9.29718 0 18.213562 3.6999512 24.787659 10.285858c6.5741577 6.5859375 10.267456 15.518372 10.267456 24.832275l0 0c0 19.395172 -15.694763 35.118073 -35.055115 35.118073l0 0c-19.360413 0 -35.055176 -15.7229 -35.055176 -35.118073z" fill-rule="nonzero"></path><path fill="#57a7db" d="m698.06824 476.75592l0 0c0 -19.395203 15.694702 -35.118134 35.055115 -35.118134l0 0c9.29718 0 18.213623 3.6999512 24.78772 10.285858c6.5740967 6.5859375 10.267395 15.518372 10.267395 24.832275l0 0c0 19.395172 -15.694702 35.118103 -35.055115 35.118103l0 0c-19.360413 0 -35.055115 -15.722931 -35.055115 -35.118103z" fill-rule="nonzero"></path><path stroke="#000000" stroke-width="1.0" stroke-linejoin="round" stroke-linecap="butt" d="m698.06824 476.75592l0 0c0 -19.395203 15.694702 -35.118134 35.055115 -35.118134l0 0c9.29718 0 18.213623 3.6999512 24.78772 10.285858c6.5740967 6.5859375 10.267395 15.518372 10.267395 24.832275l0 0c0 19.395172 -15.694702 35.118103 -35.055115 35.118103l0 0c-19.360413 0 -35.055115 -15.722931 -35.055115 -35.118103z" fill-rule="nonzero"></path><path fill="#57a7db" d="m806.68506 482.7874l0 0c0 -19.395203 15.694702 -35.118134 35.055115 -35.118134l0 0c9.29718 0 18.213562 3.6999512 24.78772 10.285858c6.5740967 6.5859375 10.267395 15.518372 10.267395 24.832275l0 0c0 19.395172 -15.694702 35.118103 -35.055115 35.118103l0 0c-19.360413 0 -35.055115 -15.722931 -35.055115 -35.118103z" fill-rule="nonzero"></path><path stroke="#000000" stroke-width="1.0" stroke-linejoin="round" stroke-linecap="butt" d="m806.68506 482.7874l0 0c0 -19.395203 15.694702 -35.118134 35.055115 -35.118134l0 0c9.29718 0 18.213562 3.6999512 24.78772 10.285858c6.5740967 6.5859375 10.267395 15.518372 10.267395 24.832275l0 0c0 19.395172 -15.694702 35.118103 -35.055115 35.118103l0 0c-19.360413 0 -35.055115 -15.722931 -35.055115 -35.118103z" fill-rule="nonzero"></path><path fill="#000000" fill-opacity="0.0" d="m293.9242 419.71893l-7.968506 38.236206" fill-rule="nonzero"></path><path stroke="#cccccc" stroke-width="4.0" stroke-linejoin="round" stroke-linecap="butt" d="m293.9242 419.71893l-7.968506 38.236206" fill-rule="nonzero"></path><path fill="#000000" fill-opacity="0.0" d="m342.19455 419.76663l20.53543 32.15747" fill-rule="nonzero"></path><path stroke="#cccccc" stroke-width="4.0" stroke-linejoin="round" stroke-linecap="butt" d="m342.19455 419.76663l20.53543 32.15747" fill-rule="nonzero"></path><path fill="#000000" fill-opacity="0.0" d="m352.46194 476.75592l-56.251984 6.047241" fill-rule="nonzero"></path><path stroke="#cccccc" stroke-width="4.0" stroke-linejoin="round" stroke-linecap="butt" d="m352.46194 476.75592l-56.251984 6.047241" fill-rule="nonzero"></path><path fill="#000000" fill-opacity="0.0" d="m352.46194 394.9344l134.07874 87.84253" fill-rule="nonzero"></path><path stroke="#cccccc" stroke-width="4.0" stroke-linejoin="round" stroke-linecap="butt" d="m352.46194 394.9344l134.07874 87.84253" fill-rule="nonzero"></path><path fill="#000000" fill-opacity="0.0" d="m352.46194 394.9344l63.968506 0" fill-rule="nonzero"></path><path stroke="#cccccc" stroke-width="4.0" stroke-linejoin="round" stroke-linecap="butt" d="m352.46194 394.9344l63.968506 0" fill-rule="nonzero"></path><path fill="#000000" fill-opacity="0.0" d="m486.5538 394.9344l38.70865 0" fill-rule="nonzero"></path><path stroke="#cccccc" stroke-width="4.0" stroke-linejoin="round" stroke-linecap="butt" d="m486.5538 394.9344l38.70865 0" fill-rule="nonzero"></path><path fill="#000000" fill-opacity="0.0" d="m595.3753 394.9344l37.228394 0" fill-rule="nonzero"></path><path stroke="#cccccc" stroke-width="4.0" stroke-linejoin="round" stroke-linecap="butt" d="m595.3753 394.9344l37.228394 0" fill-rule="nonzero"></path><path fill="#000000" fill-opacity="0.0" d="m702.7139 394.9344l65.480286 0" fill-rule="nonzero"></path><path stroke="#cccccc" stroke-width="4.0" stroke-linejoin="round" stroke-linecap="butt" d="m702.7139 394.9344l65.480286 0" fill-rule="nonzero"></path><path fill="#000000" fill-opacity="0.0" d="m422.57217 476.75592l63.968506 6.047241" fill-rule="nonzero"></path><path stroke="#cccccc" stroke-width="4.0" stroke-linejoin="round" stroke-linecap="butt" d="m422.57217 476.75592l63.968506 6.047241" fill-rule="nonzero"></path><path fill="#000000" fill-opacity="0.0" d="m476.2864 419.76663l45.322845 27.905518" fill-rule="nonzero"></path><path stroke="#cccccc" stroke-width="4.0" stroke-linejoin="round" stroke-linecap="butt" d="m476.2864 419.76663l45.322845 27.905518" fill-rule="nonzero"></path><path fill="#000000" fill-opacity="0.0" d="m535.5325 419.76663l-13.921204 27.905518" fill-rule="nonzero"></path><path stroke="#cccccc" stroke-width="4.0" stroke-linejoin="round" stroke-linecap="butt" d="m535.5325 419.76663l-13.921204 27.905518" fill-rule="nonzero"></path><path fill="#000000" fill-opacity="0.0" d="m556.66406 482.7874l32.787354 18.48819" fill-rule="nonzero"></path><path stroke="#cccccc" stroke-width="4.0" stroke-linejoin="round" stroke-linecap="butt" d="m556.66406 482.7874l32.787354 18.48819" fill-rule="nonzero"></path><path fill="#000000" fill-opacity="0.0" d="m585.1079 419.76663l39.40161 46.393707" fill-rule="nonzero"></path><path stroke="#cccccc" stroke-width="4.0" stroke-linejoin="round" stroke-linecap="butt" d="m585.1079 419.76663l39.40161 46.393707" fill-rule="nonzero"></path><path fill="#000000" fill-opacity="0.0" d="m556.66406 482.7874l86.20471 -63.02362" fill-rule="nonzero"></path><path stroke="#cccccc" stroke-width="4.0" stroke-linejoin="round" stroke-linecap="butt" d="m556.66406 482.7874l86.20471 -63.02362" fill-rule="nonzero"></path><path fill="#000000" fill-opacity="0.0" d="m659.5617 501.28085l38.519653 -24.535461" fill-rule="nonzero"></path><path stroke="#cccccc" stroke-width="4.0" stroke-linejoin="round" stroke-linecap="butt" d="m659.5617 501.28085l38.519653 -24.535461" fill-rule="nonzero"></path><path fill="#000000" fill-opacity="0.0" d="m768.17847 476.75592l38.519714 6.047241" fill-rule="nonzero"></path><path stroke="#cccccc" stroke-width="4.0" stroke-linejoin="round" stroke-linecap="butt" d="m768.17847 476.75592l38.519714 6.047241" fill-rule="nonzero"></path><path fill="#000000" fill-opacity="0.0" d="m692.44653 419.76663l124.50391 38.17325" fill-rule="nonzero"></path><path stroke="#cccccc" stroke-width="4.0" stroke-linejoin="round" stroke-linecap="butt" d="m692.44653 419.76663l124.50391 38.17325" fill-rule="nonzero"></path><path fill="#000000" fill-opacity="0.0" d="m828.0213 419.76663l13.7323 27.905518" fill-rule="nonzero"></path><path stroke="#cccccc" stroke-width="4.0" stroke-linejoin="round" stroke-linecap="butt" d="m828.0213 419.76663l13.7323 27.905518" fill-rule="nonzero"></path><path fill="#000000" fill-opacity="0.0" d="m560.3202 210.52231l-63.496033 247.43307" fill-rule="nonzero"></path><path stroke="#cccccc" stroke-width="4.0" stroke-linejoin="round" stroke-linecap="butt" stroke-dasharray="16.0,12.0" d="m560.3202 210.52231l-63.496033 247.43307" fill-rule="nonzero"></path><path fill="#000000" fill-opacity="0.0" d="m451.4987 296.9685l-155.2756 185.82678" fill-rule="nonzero"></path><path stroke="#cccccc" stroke-width="4.0" stroke-linejoin="round" stroke-linecap="butt" stroke-dasharray="16.0,12.0" d="m451.4987 296.9685l-155.2756 185.82678" fill-rule="nonzero"></path><path fill="#000000" fill-opacity="0.0" d="m451.4987 296.9685l-63.968506 144.6614" fill-rule="nonzero"></path><path stroke="#cccccc" stroke-width="4.0" stroke-linejoin="round" stroke-linecap="butt" stroke-dasharray="16.0,12.0" d="m451.4987 296.9685l-63.968506 144.6614" fill-rule="nonzero"></path><path fill="#000000" fill-opacity="0.0" d="m638.5282 286.68265l-14.015747 179.46457" fill-rule="nonzero"></path><path stroke="#cccccc" stroke-width="4.0" stroke-linejoin="round" stroke-linecap="butt" stroke-dasharray="16.0,12.0" d="m638.5282 286.68265l-14.015747 179.46457" fill-rule="nonzero"></path><path fill="#000000" fill-opacity="0.0" d="m667.6588 296.9685l139.02362 185.82678" fill-rule="nonzero"></path><path stroke="#cccccc" stroke-width="4.0" stroke-linejoin="round" stroke-linecap="butt" stroke-dasharray="16.0,12.0" d="m667.6588 296.9685l139.02362 185.82678" fill-rule="nonzero"></path><path fill="#000000" fill-opacity="0.0" d="m696.78937 286.68265l61.13385 165.22833" fill-rule="nonzero"></path><path stroke="#cccccc" stroke-width="4.0" stroke-linejoin="round" stroke-linecap="butt" stroke-dasharray="16.0,12.0" d="m696.78937 286.68265l61.13385 165.22833" fill-rule="nonzero"></path><path fill="#57db5f" d="m264.66403 585.38055l0 0c0 -15.820557 13.685303 -28.64563 30.566925 -28.64563l0 0c16.881653 0 30.566956 12.825073 30.566956 28.64563l0 0c0 15.820618 -13.685303 28.64569 -30.566956 28.64569l0 0c-16.881622 0 -30.566925 -12.825073 -30.566925 -28.64569z" fill-rule="nonzero"></path><path stroke="#000000" stroke-width="1.0" stroke-linejoin="round" stroke-linecap="butt" d="m264.66403 585.38055l0 0c0 -15.820557 13.685303 -28.64563 30.566925 -28.64563l0 0c16.881653 0 30.566956 12.825073 30.566956 28.64563l0 0c0 15.820618 -13.685303 28.64569 -30.566956 28.64569l0 0c-16.881622 0 -30.566925 -12.825073 -30.566925 -28.64569z" fill-rule="nonzero"></path><path fill="#57db5f" d="m499.18634 599.2861l0 0c0 -15.820557 13.685303 -28.64563 30.566956 -28.64563l0 0c16.881653 0 30.566895 12.825073 30.566895 28.64563l0 0c0 15.820557 -13.685242 28.64569 -30.566895 28.64569l0 0c-16.881653 0 -30.566956 -12.825134 -30.566956 -28.64569z" fill-rule="nonzero"></path><path stroke="#000000" stroke-width="1.0" stroke-linejoin="round" stroke-linecap="butt" d="m499.18634 599.2861l0 0c0 -15.820557 13.685303 -28.64563 30.566956 -28.64563l0 0c16.881653 0 30.566895 12.825073 30.566895 28.64563l0 0c0 15.820557 -13.685242 28.64569 -30.566895 28.64569l0 0c-16.881653 0 -30.566956 -12.825134 -30.566956 -28.64569z" fill-rule="nonzero"></path><path fill="#57db5f" d="m369.4042 593.0446l0 0c0 -15.820557 13.685272 -28.64569 30.566925 -28.64569l0 0c16.881653 0 30.566925 12.825134 30.566925 28.64569l0 0c0 15.820557 -13.685272 28.64569 -30.566925 28.64569l0 0c-16.881653 0 -30.566925 -12.825134 -30.566925 -28.64569z" fill-rule="nonzero"></path><path stroke="#000000" stroke-width="1.0" stroke-linejoin="round" stroke-linecap="butt" d="m369.4042 593.0446l0 0c0 -15.820557 13.685272 -28.64569 30.566925 -28.64569l0 0c16.881653 0 30.566925 12.825134 30.566925 28.64569l0 0c0 15.820557 -13.685272 28.64569 -30.566925 28.64569l0 0c-16.881653 0 -30.566925 -12.825134 -30.566925 -28.64569z" fill-rule="nonzero"></path><path fill="#57db5f" d="m707.05774 599.2861l0 0c0 -15.820557 13.685303 -28.64563 30.566956 -28.64563l0 0c16.881653 0 30.566895 12.825073 30.566895 28.64563l0 0c0 15.820557 -13.685242 28.64569 -30.566895 28.64569l0 0c-16.881653 0 -30.566956 -12.825134 -30.566956 -28.64569z" fill-rule="nonzero"></path><path stroke="#000000" stroke-width="1.0" stroke-linejoin="round" stroke-linecap="butt" d="m707.05774 599.2861l0 0c0 -15.820557 13.685303 -28.64563 30.566956 -28.64563l0 0c16.881653 0 30.566895 12.825073 30.566895 28.64563l0 0c0 15.820557 -13.685242 28.64569 -30.566895 28.64569l0 0c-16.881653 0 -30.566956 -12.825134 -30.566956 -28.64569z" fill-rule="nonzero"></path><path fill="#57db5f" d="m828.021 593.0446l0 0c0 -15.820557 13.685303 -28.64569 30.566956 -28.64569l0 0c16.881653 0 30.566895 12.825134 30.566895 28.64569l0 0c0 15.820557 -13.685242 28.64569 -30.566895 28.64569l0 0c-16.881653 0 -30.566956 -12.825134 -30.566956 -28.64569z" fill-rule="nonzero"></path><path stroke="#000000" stroke-width="1.0" stroke-linejoin="round" stroke-linecap="butt" d="m828.021 593.0446l0 0c0 -15.820557 13.685303 -28.64569 30.566956 -28.64569l0 0c16.881653 0 30.566895 12.825134 30.566895 28.64569l0 0c0 15.820557 -13.685242 28.64569 -30.566895 28.64569l0 0c-16.881653 0 -30.566956 -12.825134 -30.566956 -28.64569z" fill-rule="nonzero"></path><path fill="#000000" fill-opacity="0.0" d="m295.23096 556.7349l-34.04724 -38.834656" fill-rule="nonzero"></path><path stroke="#cccccc" stroke-width="4.0" stroke-linejoin="round" stroke-linecap="butt" stroke-dasharray="16.0,12.0" d="m295.23096 556.7349l-34.04724 -38.834656" fill-rule="nonzero"></path><path fill="#000000" fill-opacity="0.0" d="m387.51706 511.87402l12.4409485 52.5354" fill-rule="nonzero"></path><path stroke="#cccccc" stroke-width="4.0" stroke-linejoin="round" stroke-linecap="butt" stroke-dasharray="16.0,12.0" d="m387.51706 511.87402l12.4409485 52.5354" fill-rule="nonzero"></path><path fill="#000000" fill-opacity="0.0" d="m599.7189 526.1131l-48.346497 52.91339" fill-rule="nonzero"></path><path stroke="#cccccc" stroke-width="4.0" stroke-linejoin="round" stroke-linecap="butt" stroke-dasharray="16.0,12.0" d="m599.7189 526.1131l-48.346497 52.91339" fill-rule="nonzero"></path><path fill="#000000" fill-opacity="0.0" d="m733.12335 511.87402l4.5039673 58.771667" fill-rule="nonzero"></path><path stroke="#cccccc" stroke-width="4.0" stroke-linejoin="round" stroke-linecap="butt" stroke-dasharray="16.0,12.0" d="m733.12335 511.87402l4.5039673 58.771667" fill-rule="nonzero"></path><path fill="#000000" fill-opacity="0.0" d="m841.7402 517.9055l16.850403 46.48816" fill-rule="nonzero"></path><path stroke="#cccccc" stroke-width="4.0" stroke-linejoin="round" stroke-linecap="butt" stroke-dasharray="16.0,12.0" d="m841.7402 517.9055l16.850403 46.48816" fill-rule="nonzero"></path><path fill="#db5f57" d="m261.15222 170.38058l0 0c0 -5.105377 4.5970154 -9.244095 10.267731 -9.244095l0 0c5.670685 0 10.2677 4.1387177 10.2677 9.244095l0 0c0 5.105362 -4.5970154 9.24408 -10.2677 9.24408l0 0c-5.6707153 0 -10.267731 -4.1387177 -10.267731 -9.24408z" fill-rule="nonzero"></path><path stroke="#000000" stroke-width="1.0" stroke-linejoin="round" stroke-linecap="butt" d="m261.15222 170.38058l0 0c0 -5.105377 4.5970154 -9.244095 10.267731 -9.244095l0 0c5.670685 0 10.2677 4.1387177 10.2677 9.244095l0 0c0 5.105362 -4.5970154 9.24408 -10.2677 9.24408l0 0c-5.6707153 0 -10.267731 -4.1387177 -10.267731 -9.24408z" fill-rule="nonzero"></path><path fill="#57a7db" d="m261.15222 201.27821l0 0c0 -5.105377 4.5970154 -9.244095 10.267731 -9.244095l0 0c5.670685 0 10.2677 4.1387177 10.2677 9.244095l0 0c0 5.105377 -4.5970154 9.244095 -10.2677 9.244095l0 0c-5.6707153 0 -10.267731 -4.1387177 -10.267731 -9.244095z" fill-rule="nonzero"></path><path stroke="#000000" stroke-width="1.0" stroke-linejoin="round" stroke-linecap="butt" d="m261.15222 201.27821l0 0c0 -5.105377 4.5970154 -9.244095 10.267731 -9.244095l0 0c5.670685 0 10.2677 4.1387177 10.2677 9.244095l0 0c0 5.105377 -4.5970154 9.244095 -10.2677 9.244095l0 0c-5.6707153 0 -10.267731 -4.1387177 -10.267731 -9.244095z" fill-rule="nonzero"></path><path fill="#57db5f" d="m261.15222 232.17586l0 0c0 -5.105377 4.5970154 -9.244095 10.267731 -9.244095l0 0c5.670685 0 10.2677 4.1387177 10.2677 9.244095l0 0c0 5.105362 -4.5970154 9.244095 -10.2677 9.244095l0 0c-5.6707153 0 -10.267731 -4.138733 -10.267731 -9.244095z" fill-rule="nonzero"></path><path stroke="#000000" stroke-width="1.0" stroke-linejoin="round" stroke-linecap="butt" d="m261.15222 232.17586l0 0c0 -5.105377 4.5970154 -9.244095 10.267731 -9.244095l0 0c5.670685 0 10.2677 4.1387177 10.2677 9.244095l0 0c0 5.105362 -4.5970154 9.244095 -10.2677 9.244095l0 0c-5.6707153 0 -10.267731 -4.138733 -10.267731 -9.244095z" fill-rule="nonzero"></path><path fill="#000000" fill-opacity="0.0" d="m285.95538 147.85826l108.50394 0l0 32.157486l-108.50394 0z" fill-rule="nonzero"></path><path fill="#ffffff" d="m299.87726 174.77826l0 -12.0l-4.46875 0l0 -1.59375l10.765625 0l0 1.59375l-4.5 0l0 12.0l-1.796875 0zm7.7397156 -11.6875l0 -1.90625l1.671875 0l0 1.90625l-1.671875 0zm0 11.6875l0 -9.859375l1.671875 0l0 9.859375l-1.671875 0zm10.879211 -3.171875l1.71875 0.21875q-0.40625 1.5 -1.515625 2.34375q-1.09375 0.828125 -2.8125 0.828125q-2.15625 0 -3.421875 -1.328125q-1.265625 -1.328125 -1.265625 -3.734375q0 -2.484375 1.265625 -3.859375q1.28125 -1.375 3.328125 -1.375q1.984375 0 3.234375 1.34375q1.25 1.34375 1.25 3.796875q0 0.140625 -0.015625 0.4375l-7.34375 0q0.09375 1.625 0.921875 2.484375q0.828125 0.859375 2.0625 0.859375q0.90625 0 1.546875 -0.46875q0.65625 -0.484375 1.046875 -1.546875zm-5.484375 -2.703125l5.5 0q-0.109375 -1.234375 -0.625 -1.859375q-0.796875 -0.96875 -2.078125 -0.96875q-1.140625 0 -1.9375 0.78125q-0.78125 0.765625 -0.859375 2.046875zm9.094452 5.875l0 -9.859375l1.5 0l0 1.5q0.578125 -1.046875 1.0625 -1.375q0.484375 -0.34375 1.078125 -0.34375q0.84375 0 1.71875 0.546875l-0.578125 1.546875q-0.609375 -0.359375 -1.234375 -0.359375q-0.546875 0 -0.984375 0.328125q-0.421875 0.328125 -0.609375 0.90625q-0.28125 0.890625 -0.28125 1.953125l0 5.15625l-1.671875 0zm17.239746 0l-1.671875 0l0 -10.640625q-0.59375 0.578125 -1.578125 1.15625q-0.984375 0.5625 -1.765625 0.859375l0 -1.625q1.40625 -0.65625 2.453125 -1.59375q1.046875 -0.9375 1.484375 -1.8125l1.078125 0l0 13.65625zm10.246521 0l0 -13.59375l1.8125 0l0 13.59375l-1.8125 0zm4.2770386 -4.375l1.6875 -0.140625q0.125 1.015625 0.5625 1.671875q0.4375 0.65625 1.359375 1.0625q0.9375 0.40625 2.09375 0.40625q1.03125 0 1.8125 -0.3125q0.796875 -0.3125 1.1875 -0.84375q0.390625 -0.53125 0.390625 -1.15625q0 -0.640625 -0.375 -1.109375q-0.375 -0.484375 -1.234375 -0.8125q-0.546875 -0.21875 -2.421875 -0.65625q-1.875 -0.453125 -2.625 -0.859375q-0.96875 -0.515625 -1.453125 -1.265625q-0.46875 -0.75 -0.46875 -1.6875q0 -1.03125 0.578125 -1.921875q0.59375 -0.90625 1.703125 -1.359375q1.125 -0.46875 2.5 -0.46875q1.515625 0 2.671875 0.484375q1.15625 0.484375 1.765625 1.4375q0.625 0.9375 0.671875 2.140625l-1.71875 0.125q-0.140625 -1.28125 -0.953125 -1.9375q-0.796875 -0.671875 -2.359375 -0.671875q-1.625 0 -2.375 0.609375q-0.75 0.59375 -0.75 1.4375q0 0.734375 0.53125 1.203125q0.515625 0.46875 2.703125 0.96875q2.203125 0.5 3.015625 0.875q1.1875 0.546875 1.75 1.390625q0.578125 0.828125 0.578125 1.921875q0 1.09375 -0.625 2.0625q-0.625 0.953125 -1.796875 1.484375q-1.15625 0.53125 -2.609375 0.53125q-1.84375 0 -3.09375 -0.53125q-1.25 -0.546875 -1.96875 -1.625q-0.703125 -1.078125 -0.734375 -2.453125zm13.052948 4.375l0 -13.59375l5.125 0q1.359375 0 2.078125 0.125q1.0 0.171875 1.671875 0.640625q0.671875 0.46875 1.078125 1.3125q0.421875 0.84375 0.421875 1.84375q0 1.734375 -1.109375 2.9375q-1.09375 1.203125 -3.984375 1.203125l-3.484375 0l0 5.53125l-1.796875 0zm1.796875 -7.140625l3.515625 0q1.75 0 2.46875 -0.640625q0.734375 -0.65625 0.734375 -1.828125q0 -0.859375 -0.4375 -1.46875q-0.421875 -0.609375 -1.125 -0.796875q-0.453125 -0.125 -1.671875 -0.125l-3.484375 0l0 4.859375z" fill-rule="nonzero"></path><path fill="#000000" fill-opacity="0.0" d="m285.95538 179.62466l108.50394 0l0 32.157486l-108.50394 0z" fill-rule="nonzero"></path><path fill="#ffffff" d="m299.87726 206.54466l0 -12.0l-4.46875 0l0 -1.59375l10.765625 0l0 1.59375l-4.5 0l0 12.0l-1.796875 0zm7.7397156 -11.6875l0 -1.90625l1.671875 0l0 1.90625l-1.671875 0zm0 11.6875l0 -9.859375l1.671875 0l0 9.859375l-1.671875 0zm10.879211 -3.171875l1.71875 0.21875q-0.40625 1.5 -1.515625 2.34375q-1.09375 0.828125 -2.8125 0.828125q-2.15625 0 -3.421875 -1.328125q-1.265625 -1.328125 -1.265625 -3.734375q0 -2.484375 1.265625 -3.859375q1.28125 -1.375 3.328125 -1.375q1.984375 0 3.234375 1.34375q1.25 1.34375 1.25 3.796875q0 0.140625 -0.015625 0.4375l-7.34375 0q0.09375 1.625 0.921875 2.484375q0.828125 0.859375 2.0625 0.859375q0.90625 0 1.546875 -0.46875q0.65625 -0.484375 1.046875 -1.546875zm-5.484375 -2.703125l5.5 0q-0.109375 -1.234375 -0.625 -1.859375q-0.796875 -0.96875 -2.078125 -0.96875q-1.140625 0 -1.9375 0.78125q-0.78125 0.765625 -0.859375 2.046875zm9.094452 5.875l0 -9.859375l1.5 0l0 1.5q0.578125 -1.046875 1.0625 -1.375q0.484375 -0.34375 1.078125 -0.34375q0.84375 0 1.71875 0.546875l-0.578125 1.546875q-0.609375 -0.359375 -1.234375 -0.359375q-0.546875 0 -0.984375 0.328125q-0.421875 0.328125 -0.609375 0.90625q-0.28125 0.890625 -0.28125 1.953125l0 5.15625l-1.671875 0zm19.724121 -1.609375l0 1.609375l-8.984375 0q-0.015625 -0.609375 0.1875 -1.15625q0.34375 -0.921875 1.09375 -1.8125q0.765625 -0.890625 2.1875 -2.0625q2.21875 -1.8125 3.0 -2.875q0.78125 -1.0625 0.78125 -2.015625q0 -0.984375 -0.71875 -1.671875q-0.703125 -0.6875 -1.84375 -0.6875q-1.203125 0 -1.9375 0.734375q-0.71875 0.71875 -0.71875 2.0l-1.71875 -0.171875q0.171875 -1.921875 1.328125 -2.921875q1.15625 -1.015625 3.09375 -1.015625q1.953125 0 3.09375 1.09375q1.140625 1.078125 1.140625 2.6875q0 0.8125 -0.34375 1.609375q-0.328125 0.78125 -1.109375 1.65625q-0.765625 0.859375 -2.5625 2.390625q-1.5 1.265625 -1.9375 1.71875q-0.421875 0.4375 -0.703125 0.890625l6.671875 0zm7.762146 1.609375l0 -13.59375l1.8125 0l0 13.59375l-1.8125 0zm4.2770386 -4.375l1.6875 -0.140625q0.125 1.015625 0.5625 1.671875q0.4375 0.65625 1.359375 1.0625q0.9375 0.40625 2.09375 0.40625q1.03125 0 1.8125 -0.3125q0.796875 -0.3125 1.1875 -0.84375q0.390625 -0.53125 0.390625 -1.15625q0 -0.640625 -0.375 -1.109375q-0.375 -0.484375 -1.234375 -0.8125q-0.546875 -0.21875 -2.421875 -0.65625q-1.875 -0.453125 -2.625 -0.859375q-0.96875 -0.515625 -1.453125 -1.265625q-0.46875 -0.75 -0.46875 -1.6875q0 -1.03125 0.578125 -1.921875q0.59375 -0.90625 1.703125 -1.359375q1.125 -0.46875 2.5 -0.46875q1.515625 0 2.671875 0.484375q1.15625 0.484375 1.765625 1.4375q0.625 0.9375 0.671875 2.140625l-1.71875 0.125q-0.140625 -1.28125 -0.953125 -1.9375q-0.796875 -0.671875 -2.359375 -0.671875q-1.625 0 -2.375 0.609375q-0.75 0.59375 -0.75 1.4375q0 0.734375 0.53125 1.203125q0.515625 0.46875 2.703125 0.96875q2.203125 0.5 3.015625 0.875q1.1875 0.546875 1.75 1.390625q0.578125 0.828125 0.578125 1.921875q0 1.09375 -0.625 2.0625q-0.625 0.953125 -1.796875 1.484375q-1.15625 0.53125 -2.609375 0.53125q-1.84375 0 -3.09375 -0.53125q-1.25 -0.546875 -1.96875 -1.625q-0.703125 -1.078125 -0.734375 -2.453125zm13.052948 4.375l0 -13.59375l5.125 0q1.359375 0 2.078125 0.125q1.0 0.171875 1.671875 0.640625q0.671875 0.46875 1.078125 1.3125q0.421875 0.84375 0.421875 1.84375q0 1.734375 -1.109375 2.9375q-1.09375 1.203125 -3.984375 1.203125l-3.484375 0l0 5.53125l-1.796875 0zm1.796875 -7.140625l3.515625 0q1.75 0 2.46875 -0.640625q0.734375 -0.65625 0.734375 -1.828125q0 -0.859375 -0.4375 -1.46875q-0.421875 -0.609375 -1.125 -0.796875q-0.453125 -0.125 -1.671875 -0.125l-3.484375 0l0 4.859375z" fill-rule="nonzero"></path><path fill="#000000" fill-opacity="0.0" d="m286.32022 210.52231l132.28345 0l0 32.157486l-132.28345 0z" fill-rule="nonzero"></path><path fill="#ffffff" d="m296.1796 233.0673l1.6875 -0.140625q0.125 1.015625 0.5625 1.671875q0.4375 0.65625 1.359375 1.0625q0.9375 0.40625 2.09375 0.40625q1.03125 0 1.8125 -0.3125q0.796875 -0.3125 1.1875 -0.84375q0.390625 -0.53125 0.390625 -1.15625q0 -0.640625 -0.375 -1.109375q-0.375 -0.484375 -1.234375 -0.8125q-0.546875 -0.21875 -2.421875 -0.65625q-1.875 -0.453125 -2.625 -0.859375q-0.96875 -0.515625 -1.453125 -1.265625q-0.46875 -0.75 -0.46875 -1.6875q0 -1.03125 0.578125 -1.921875q0.59375 -0.90625 1.703125 -1.359375q1.125 -0.46875 2.5 -0.46875q1.515625 0 2.671875 0.484375q1.15625 0.484375 1.765625 1.4375q0.625 0.9375 0.671875 2.140625l-1.71875 0.125q-0.140625 -1.28125 -0.953125 -1.9375q-0.796875 -0.671875 -2.359375 -0.671875q-1.625 0 -2.375 0.609375q-0.75 0.59375 -0.75 1.4375q0 0.734375 0.53125 1.203125q0.515625 0.46875 2.703125 0.96875q2.203125 0.5 3.015625 0.875q1.1875 0.546875 1.75 1.390625q0.578125 0.828125 0.578125 1.921875q0 1.09375 -0.625 2.0625q-0.625 0.953125 -1.796875 1.484375q-1.15625 0.53125 -2.609375 0.53125q-1.84375 0 -3.09375 -0.53125q-1.25 -0.546875 -1.96875 -1.625q-0.703125 -1.078125 -0.734375 -2.453125zm12.834198 4.375l0 -9.859375l1.5 0l0 1.390625q0.453125 -0.71875 1.21875 -1.15625q0.78125 -0.453125 1.765625 -0.453125q1.09375 0 1.796875 0.453125q0.703125 0.453125 0.984375 1.28125q1.171875 -1.734375 3.046875 -1.734375q1.46875 0 2.25 0.8125q0.796875 0.8125 0.796875 2.5l0 6.765625l-1.671875 0l0 -6.203125q0 -1.0 -0.15625 -1.4375q-0.15625 -0.453125 -0.59375 -0.71875q-0.421875 -0.265625 -1.0 -0.265625q-1.03125 0 -1.71875 0.6875q-0.6875 0.6875 -0.6875 2.21875l0 5.71875l-1.671875 0l0 -6.40625q0 -1.109375 -0.40625 -1.65625q-0.40625 -0.5625 -1.34375 -0.5625q-0.703125 0 -1.3125 0.375q-0.59375 0.359375 -0.859375 1.078125q-0.265625 0.71875 -0.265625 2.0625l0 5.109375l-1.671875 0zm21.978302 -1.21875q-0.9375 0.796875 -1.796875 1.125q-0.859375 0.3125 -1.84375 0.3125q-1.609375 0 -2.484375 -0.78125q-0.875 -0.796875 -0.875 -2.03125q0 -0.734375 0.328125 -1.328125q0.328125 -0.59375 0.859375 -0.953125q0.53125 -0.359375 1.203125 -0.546875q0.5 -0.140625 1.484375 -0.25q2.03125 -0.25 2.984375 -0.578125q0 -0.34375 0 -0.4375q0 -1.015625 -0.46875 -1.4375q-0.640625 -0.5625 -1.90625 -0.5625q-1.171875 0 -1.734375 0.40625q-0.5625 0.40625 -0.828125 1.46875l-1.640625 -0.234375q0.234375 -1.046875 0.734375 -1.6875q0.515625 -0.640625 1.46875 -0.984375q0.96875 -0.359375 2.25 -0.359375q1.265625 0 2.046875 0.296875q0.78125 0.296875 1.15625 0.75q0.375 0.453125 0.515625 1.140625q0.09375 0.421875 0.09375 1.53125l0 2.234375q0 2.328125 0.09375 2.953125q0.109375 0.609375 0.4375 1.171875l-1.75 0q-0.265625 -0.515625 -0.328125 -1.21875zm-0.140625 -3.71875q-0.90625 0.359375 -2.734375 0.625q-1.03125 0.140625 -1.453125 0.328125q-0.421875 0.1875 -0.65625 0.546875q-0.234375 0.359375 -0.234375 0.796875q0 0.671875 0.5 1.125q0.515625 0.4375 1.484375 0.4375q0.96875 0 1.71875 -0.421875q0.75 -0.4375 1.109375 -1.15625q0.265625 -0.578125 0.265625 -1.671875l0 -0.609375zm4.047577 4.9375l0 -13.59375l1.671875 0l0 13.59375l-1.671875 0zm4.1448364 0l0 -13.59375l1.671875 0l0 13.59375l-1.671875 0zm10.926056 -3.171875l1.71875 0.21875q-0.40625 1.5 -1.515625 2.34375q-1.09375 0.828125 -2.8125 0.828125q-2.15625 0 -3.421875 -1.328125q-1.265625 -1.328125 -1.265625 -3.734375q0 -2.484375 1.265625 -3.859375q1.28125 -1.375 3.328125 -1.375q1.984375 0 3.234375 1.34375q1.25 1.34375 1.25 3.796875q0 0.140625 -0.015625 0.4375l-7.34375 0q0.09375 1.625 0.921875 2.484375q0.828125 0.859375 2.0625 0.859375q0.90625 0 1.546875 -0.46875q0.65625 -0.484375 1.046875 -1.546875zm-5.484375 -2.703125l5.5 0q-0.109375 -1.234375 -0.625 -1.859375q-0.796875 -0.96875 -2.078125 -0.96875q-1.140625 0 -1.9375 0.78125q-0.78125 0.765625 -0.859375 2.046875zm9.094482 5.875l0 -9.859375l1.5 0l0 1.5q0.578125 -1.046875 1.0625 -1.375q0.484375 -0.34375 1.078125 -0.34375q0.84375 0 1.71875 0.546875l-0.578125 1.546875q-0.609375 -0.359375 -1.234375 -0.359375q-0.546875 0 -0.984375 0.328125q-0.421875 0.328125 -0.609375 0.90625q-0.28125 0.890625 -0.28125 1.953125l0 5.15625l-1.671875 0zm11.927216 0l0 -13.59375l1.8125 0l0 13.59375l-1.8125 0zm4.277069 -4.375l1.6875 -0.140625q0.125 1.015625 0.5625 1.671875q0.4375 0.65625 1.359375 1.0625q0.9375 0.40625 2.09375 0.40625q1.03125 0 1.8125 -0.3125q0.796875 -0.3125 1.1875 -0.84375q0.390625 -0.53125 0.390625 -1.15625q0 -0.640625 -0.375 -1.109375q-0.375 -0.484375 -1.234375 -0.8125q-0.546875 -0.21875 -2.421875 -0.65625q-1.875 -0.453125 -2.625 -0.859375q-0.96875 -0.515625 -1.453125 -1.265625q-0.46875 -0.75 -0.46875 -1.6875q0 -1.03125 0.578125 -1.921875q0.59375 -0.90625 1.703125 -1.359375q1.125 -0.46875 2.5 -0.46875q1.515625 0 2.671875 0.484375q1.15625 0.484375 1.765625 1.4375q0.625 0.9375 0.671875 2.140625l-1.71875 0.125q-0.140625 -1.28125 -0.953125 -1.9375q-0.796875 -0.671875 -2.359375 -0.671875q-1.625 0 -2.375 0.609375q-0.75 0.59375 -0.75 1.4375q0 0.734375 0.53125 1.203125q0.515625 0.46875 2.703125 0.96875q2.203125 0.5 3.015625 0.875q1.1875 0.546875 1.75 1.390625q0.578125 0.828125 0.578125 1.921875q0 1.09375 -0.625 2.0625q-0.625 0.953125 -1.796875 1.484375q-1.15625 0.53125 -2.609375 0.53125q-1.84375 0 -3.09375 -0.53125q-1.25 -0.546875 -1.96875 -1.625q-0.703125 -1.078125 -0.734375 -2.453125zm13.052948 4.375l0 -13.59375l5.125 0q1.359375 0 2.078125 0.125q1.0 0.171875 1.671875 0.640625q0.671875 0.46875 1.078125 1.3125q0.421875 0.84375 0.421875 1.84375q0 1.734375 -1.109375 2.9375q-1.09375 1.203125 -3.984375 1.203125l-3.484375 0l0 5.53125l-1.796875 0zm1.796875 -7.140625l3.515625 0q1.75 0 2.46875 -0.640625q0.734375 -0.65625 0.734375 -1.828125q0 -0.859375 -0.4375 -1.46875q-0.421875 -0.609375 -1.125 -0.796875q-0.453125 -0.125 -1.671875 -0.125l-3.484375 0l0 4.859375z" fill-rule="nonzero"></path></g></svg>

